<?plantuml 1.2026.2beta2?><svg xmlns="http://www.w3.org/2000/svg" xmlns:xlink="http://www.w3.org/1999/xlink" contentStyleType="text/css" data-diagram-type="ACTIVITY" height="1229px" preserveAspectRatio="none" style="width:2045px;height:1229px;background:#FFFFFF;" version="1.1" viewBox="0 0 2045 1229" width="2045px" zoomAndPan="magnify"><title>**PLI Network Analysis Pipeline**
Phase Lag Index Statistical Analysis Workflow</title><defs/><g><g class="title" data-source-line="30"><text fill="#000000" font-family="Arial" font-size="14" font-weight="bold" lengthAdjust="spacing" textLength="234.958" x="903.7852" y="32.9951">PLI Network Analysis Pipeline</text><text fill="#000000" font-family="Arial" font-size="14" font-weight="bold" lengthAdjust="spacing" textLength="364.4238" x="839.0522" y="49.292">Phase Lag Index Statistical Analysis Workflow</text></g><rect fill="none" height="13.9688" style="stroke:none;stroke-width:1;" width="2012.5283" x="15" y="64.9238"/><rect fill="#E6F3FF" height="1140.25" style="stroke:#E6F3FF;stroke-width:1;" width="368.9004" x="15" y="64.9238"/><ellipse cx="118.958" cy="93.8926" fill="#222222" rx="10" ry="10" style="stroke:#222222;stroke-width:1;"/><rect fill="#E8F4FD" height="47.9375" rx="5" ry="5" style="stroke:#2C5282;stroke-width:0.5;" width="167.4805" x="35.2178" y="123.8926"/><text fill="#1A365D" font-family="Arial" font-size="12" font-weight="bold" lengthAdjust="spacing" textLength="101.25" x="45.2178" y="145.0313">Load Raw Data</text><text fill="#1A365D" font-family="Arial" font-size="12" font-style="italic" lengthAdjust="spacing" textLength="147.4805" x="45.2178" y="159">Excel file with PLI values</text><path d="M195.6104,181.8301 L195.6104,211.9316 L175.6104,215.9316 L195.6104,219.9316 L195.6104,250.0332 A0,0 0 0 0 195.6104,250.0332 L378.9004,250.0332 A0,0 0 0 0 378.9004,250.0332 L378.9004,191.8301 L368.9004,181.8301 L195.6104,181.8301 A0,0 0 0 0 195.6104,181.8301" fill="#FFFBEB" style="stroke:#D69E2E;stroke-width:0.5;"/><path d="M368.9004,181.8301 L368.9004,191.8301 L378.9004,191.8301 L368.9004,181.8301" fill="#FFFBEB" style="stroke:#D69E2E;stroke-width:0.5;"/><text fill="#000000" font-family="Arial" font-size="10" font-weight="bold" lengthAdjust="spacing" textLength="102.168" x="201.6104" y="196.1123">Selection Criteria:</text><text fill="#000000" font-family="Arial" font-size="10" lengthAdjust="spacing" textLength="122.6953" x="201.6104" y="207.7529">- Groups (Chiro, Control)</text><text fill="#000000" font-family="Arial" font-size="10" lengthAdjust="spacing" textLength="148.9502" x="201.6104" y="219.3936">- Sessions (Pre, Post, Post4W)</text><text fill="#000000" font-family="Arial" font-size="10" lengthAdjust="spacing" textLength="135.8643" x="201.6104" y="231.0342">- Networks (DMN, SN, CEN)</text><text fill="#000000" font-family="Arial" font-size="10" lengthAdjust="spacing" textLength="162.29" x="201.6104" y="242.6748">- Frequency Bands (Alpha, Beta)</text><rect fill="#E8F4FD" height="33.9688" rx="5" ry="5" style="stroke:#2C5282;stroke-width:0.5;" width="113.3047" x="62.3057" y="198.9473"/><text fill="#1A365D" font-family="Arial" font-size="12" font-weight="bold" lengthAdjust="spacing" textLength="93.3047" x="72.3057" y="220.0859">Filter Dataset</text><rect fill="#E8F4FD" height="61.9063" rx="5" ry="5" style="stroke:#2C5282;stroke-width:0.5;" width="195.916" x="21" y="270.0332"/><text fill="#1A365D" font-family="Arial" font-size="12" font-weight="bold" lengthAdjust="spacing" textLength="124.3711" x="31" y="291.1719">Calculate Baseline</text><text fill="#1A365D" font-family="Arial" font-size="12" font-style="italic" lengthAdjust="spacing" textLength="157.5762" x="31" y="305.1406">Mean PLI from Pre session</text><text fill="#1A365D" font-family="Arial" font-size="12" font-style="italic" lengthAdjust="spacing" textLength="175.916" x="31" y="319.1094">per participant/network/band</text><rect fill="#E8F4FD" height="47.9375" rx="5" ry="5" style="stroke:#2C5282;stroke-width:0.5;" width="155.6094" x="41.1533" y="351.9395"/><text fill="#1A365D" font-family="Arial" font-size="12" font-weight="bold" lengthAdjust="spacing" textLength="135.6094" x="51.1533" y="373.0781">Exclude Pre Session</text><text fill="#1A365D" font-family="Arial" font-size="12" lengthAdjust="spacing" textLength="113.9063" x="51.1533" y="387.0469">from Main Analysis</text><line style="stroke:#000000;stroke-width:1.5;" x1="15" x2="15" y1="64.9238" y2="1205.1738"/><rect fill="#E6FFED" height="1140.25" style="stroke:#E6FFED;stroke-width:1;" width="374.6934" x="383.9004" y="64.9238"/><rect fill="#E8F4FD" height="47.9375" rx="5" ry="5" style="stroke:#2C5282;stroke-width:0.5;" width="182.5859" x="399.291" y="419.877"/><text fill="#1A365D" font-family="Arial" font-size="12" font-weight="bold" lengthAdjust="spacing" textLength="82.4883" x="409.291" y="441.0156">Iterate Over</text><text fill="#1A365D" font-family="Arial" font-size="12" lengthAdjust="spacing" textLength="162.5859" x="409.291" y="454.9844">Network x Frequency Band</text><rect fill="#F7FAFC" height="257.0156" rx="5" ry="5" style="stroke:#4A5568;stroke-width:1.5;" width="364.6934" x="389.9004" y="477.8145"/><path d="M614.6992,477.8145 L614.6992,487.1113 L604.6992,497.1113 L389.9004,497.1113" fill="none" style="stroke:#4A5568;stroke-width:1.5;"/><text fill="#2D3748" font-family="Arial" font-size="14" font-weight="bold" lengthAdjust="spacing" textLength="214.7988" x="392.9004" y="491.8096">Linear Mixed-Effects Model</text><path d="M565.2441,507.1113 L565.2441,543.0332 L545.2441,547.0332 L565.2441,551.0332 L565.2441,586.9551 A0,0 0 0 0 565.2441,586.9551 L744.5938,586.9551 A0,0 0 0 0 744.5938,586.9551 L744.5938,517.1113 L734.5938,507.1113 L565.2441,507.1113 A0,0 0 0 0 565.2441,507.1113" fill="#FFFBEB" style="stroke:#D69E2E;stroke-width:0.5;"/><path d="M734.5938,507.1113 L734.5938,517.1113 L744.5938,517.1113 L734.5938,507.1113" fill="#FFFBEB" style="stroke:#D69E2E;stroke-width:0.5;"/><text fill="#000000" font-family="Arial" font-size="10" font-weight="bold" lengthAdjust="spacing" textLength="114.8193" x="571.2441" y="521.3936">Model Specification:</text><text fill="#000000" font-family="Arial" font-size="10" lengthAdjust="spacing" textLength="62.8857" x="571.2441" y="533.0342">DV: MeanPLI</text><text fill="#000000" font-family="Arial" font-size="10" lengthAdjust="spacing" textLength="128.6084" x="571.2441" y="544.6748">Fixed: Group + Session +</text><text fill="#000000" font-family="Arial" font-size="10" lengthAdjust="spacing" textLength="92.6514" x="593.4951" y="556.3154">Group x Session +</text><text fill="#000000" font-family="Arial" font-size="10" lengthAdjust="spacing" textLength="100.1318" x="593.4951" y="567.9561">Baseline (covariate)</text><text fill="#000000" font-family="Arial" font-size="10" lengthAdjust="spacing" textLength="158.3496" x="571.2441" y="579.5967">Random: Participant (intercept)</text><rect fill="#E8F4FD" height="33.9688" rx="5" ry="5" style="stroke:#2C5282;stroke-width:0.5;" width="109.3203" x="435.9238" y="530.0488"/><text fill="#1A365D" font-family="Arial" font-size="12" font-weight="bold" lengthAdjust="spacing" textLength="89.3203" x="445.9238" y="551.1875">Define Model</text><rect fill="#E8F4FD" height="47.9375" rx="5" ry="5" style="stroke:#2C5282;stroke-width:0.5;" width="137.2109" x="421.9785" y="606.9551"/><text fill="#1A365D" font-family="Arial" font-size="12" font-weight="bold" lengthAdjust="spacing" textLength="63.252" x="431.9785" y="628.0938">Fit Model</text><text fill="#1A365D" font-family="Arial" font-size="12" font-style="italic" lengthAdjust="spacing" textLength="117.2109" x="431.9785" y="642.0625">LBFGS optimization</text><rect fill="#E8F4FD" height="47.9375" rx="5" ry="5" style="stroke:#2C5282;stroke-width:0.5;" width="181.3672" x="399.9004" y="674.8926"/><text fill="#1A365D" font-family="Arial" font-size="12" font-weight="bold" lengthAdjust="spacing" textLength="150.6504" x="409.9004" y="696.0313">Evaluate Fixed Effects</text><text fill="#1A365D" font-family="Arial" font-size="12" font-style="italic" lengthAdjust="spacing" textLength="161.3672" x="409.9004" y="710">Main effects &amp; interactions</text><line style="stroke:#000000;stroke-width:1.5;" x1="383.9004" x2="383.9004" y1="64.9238" y2="1205.1738"/><rect fill="#FFF5E6" height="1140.25" style="stroke:#FFF5E6;stroke-width:1;" width="576.7822" x="758.5938" y="64.9238"/><rect fill="#555555" height="6" rx="2.5" ry="2.5" style="stroke:#555555;stroke-width:1;" width="566.7822" x="764.5938" y="754.8301"/><path d="M921.6465,782.3379 L921.6465,800.7988 L901.6465,804.7988 L921.6465,808.7988 L921.6465,827.2598 A0,0 0 0 0 921.6465,827.2598 L1041.1523,827.2598 A0,0 0 0 0 1041.1523,827.2598 L1041.1523,792.3379 L1031.1523,782.3379 L921.6465,782.3379 A0,0 0 0 0 921.6465,782.3379" fill="#FFFBEB" style="stroke:#D69E2E;stroke-width:0.5;"/><path d="M1031.1523,782.3379 L1031.1523,792.3379 L1041.1523,792.3379 L1031.1523,782.3379" fill="#FFFBEB" style="stroke:#D69E2E;stroke-width:0.5;"/><text fill="#000000" font-family="Arial" font-size="10" lengthAdjust="spacing" textLength="98.5059" x="927.6465" y="796.6201">Independent t-tests</text><text fill="#000000" font-family="Arial" font-size="10" lengthAdjust="spacing" textLength="91.0596" x="927.6465" y="808.2607">comparing groups</text><text fill="#000000" font-family="Arial" font-size="10" lengthAdjust="spacing" textLength="77.5391" x="927.6465" y="819.9014">at each session</text><rect fill="#E8F4FD" height="47.9375" rx="5" ry="5" style="stroke:#2C5282;stroke-width:0.5;" width="125.0527" x="776.5938" y="780.8301"/><text fill="#1A365D" font-family="Arial" font-size="12" font-weight="bold" lengthAdjust="spacing" textLength="105.0527" x="786.5938" y="801.9688">Between-Group</text><text fill="#1A365D" font-family="Arial" font-size="12" font-weight="bold" lengthAdjust="spacing" textLength="65.3672" x="786.5938" y="815.9375">Contrasts</text><path d="M1069.1523,782.3379 L1069.1523,827.2598 A0,0 0 0 0 1069.1523,827.2598 L1188.9658,827.2598 A0,0 0 0 0 1188.9658,827.2598 L1188.9658,808.7988 L1208.9658,804.7988 L1188.9658,800.7988 L1188.9658,792.3379 L1178.9658,782.3379 L1069.1523,782.3379 A0,0 0 0 0 1069.1523,782.3379" fill="#FFFBEB" style="stroke:#D69E2E;stroke-width:0.5;"/><path d="M1178.9658,782.3379 L1178.9658,792.3379 L1188.9658,792.3379 L1178.9658,782.3379" fill="#FFFBEB" style="stroke:#D69E2E;stroke-width:0.5;"/><text fill="#000000" font-family="Arial" font-size="10" lengthAdjust="spacing" textLength="98.5059" x="1075.1523" y="796.6201">Independent t-tests</text><text fill="#000000" font-family="Arial" font-size="10" lengthAdjust="spacing" textLength="98.8135" x="1075.1523" y="808.2607">comparing sessions</text><text fill="#000000" font-family="Arial" font-size="10" lengthAdjust="spacing" textLength="90.0684" x="1075.1523" y="819.9014">within each group</text><rect fill="#E8F4FD" height="47.9375" rx="5" ry="5" style="stroke:#2C5282;stroke-width:0.5;" width="110.4102" x="1208.9658" y="780.8301"/><text fill="#1A365D" font-family="Arial" font-size="12" font-weight="bold" lengthAdjust="spacing" textLength="90.4102" x="1218.9658" y="801.9688">Within-Group</text><text fill="#1A365D" font-family="Arial" font-size="12" font-weight="bold" lengthAdjust="spacing" textLength="65.3672" x="1218.9658" y="815.9375">Contrasts</text><rect fill="#555555" height="6" rx="2.5" ry="2.5" style="stroke:#555555;stroke-width:1;" width="566.7822" x="764.5938" y="848.7676"/><rect fill="#E8F4FD" height="47.9375" rx="5" ry="5" style="stroke:#2C5282;stroke-width:0.5;" width="152.6152" x="971.6772" y="874.7676"/><text fill="#1A365D" font-family="Arial" font-size="12" font-weight="bold" lengthAdjust="spacing" textLength="124.9219" x="981.6772" y="895.9063">Apply Significance</text><text fill="#1A365D" font-family="Arial" font-size="12" font-weight="bold" lengthAdjust="spacing" textLength="67.418" x="981.6772" y="909.875">Threshold</text><text fill="#1A365D" font-family="Arial" font-size="12" lengthAdjust="spacing" textLength="61.3828" x="1052.9097" y="909.875">(p &lt; 0.05)</text><line style="stroke:#000000;stroke-width:1.5;" x1="758.5938" x2="758.5938" y1="64.9238" y2="1205.1738"/><rect fill="#F5E6FF" height="1140.25" style="stroke:#F5E6FF;stroke-width:1;" width="691.2451" x="1335.376" y="64.9238"/><rect fill="#555555" height="6" rx="2.5" ry="2.5" style="stroke:#555555;stroke-width:1;" width="681.2451" x="1341.376" y="942.7051"/><path d="M1526.7646,958.7051 L1526.7646,982.9863 L1506.7646,986.9863 L1526.7646,990.9863 L1526.7646,1015.2676 A0,0 0 0 0 1526.7646,1015.2676 L1696.2754,1015.2676 A0,0 0 0 0 1696.2754,1015.2676 L1696.2754,968.7051 L1686.2754,958.7051 L1526.7646,958.7051 A0,0 0 0 0 1526.7646,958.7051" fill="#FFFBEB" style="stroke:#D69E2E;stroke-width:0.5;"/><path d="M1686.2754,958.7051 L1686.2754,968.7051 L1696.2754,968.7051 L1686.2754,958.7051" fill="#FFFBEB" style="stroke:#D69E2E;stroke-width:0.5;"/><text fill="#000000" font-family="Arial" font-size="10" lengthAdjust="spacing" textLength="144.3799" x="1532.7646" y="972.9873">- Mean PLI per group/session</text><text fill="#000000" font-family="Arial" font-size="10" lengthAdjust="spacing" textLength="80.1807" x="1532.7646" y="984.6279">- Error bars (SE)</text><text fill="#000000" font-family="Arial" font-size="10" lengthAdjust="spacing" textLength="111.7139" x="1532.7646" y="996.2686">- Significance markers</text><text fill="#000000" font-family="Arial" font-size="10" lengthAdjust="spacing" textLength="45.8887" x="1539.1221" y="1007.9092">(* p&lt;.05,</text><text fill="#000000" font-family="Arial" font-size="10" font-weight="bold" lengthAdjust="spacing" textLength="37.0508" x="1591.6709" y="1007.9092">p&lt;.01,</text><text fill="#000000" font-family="Arial" font-size="10" lengthAdjust="spacing" textLength="49.0723" x="1632.2031" y="1007.9092">* p&lt;.001)</text><rect fill="#E8F4FD" height="33.9688" rx="5" ry="5" style="stroke:#2C5282;stroke-width:0.5;" width="153.3887" x="1353.376" y="970.002"/><text fill="#1A365D" font-family="Arial" font-size="12" font-weight="bold" lengthAdjust="spacing" textLength="133.3887" x="1363.376" y="991.1406">Generate Line Plots</text><path d="M1724.2754,964.5254 L1724.2754,1009.4473 A0,0 0 0 0 1724.2754,1009.4473 L1868.5566,1009.4473 A0,0 0 0 0 1868.5566,1009.4473 L1868.5566,990.9863 L1888.5566,986.9863 L1868.5566,982.9863 L1868.5566,974.5254 L1858.5566,964.5254 L1724.2754,964.5254 A0,0 0 0 0 1724.2754,964.5254" fill="#FFFBEB" style="stroke:#D69E2E;stroke-width:0.5;"/><path d="M1858.5566,964.5254 L1858.5566,974.5254 L1868.5566,974.5254 L1858.5566,964.5254" fill="#FFFBEB" style="stroke:#D69E2E;stroke-width:0.5;"/><text fill="#000000" font-family="Arial" font-size="10" lengthAdjust="spacing" textLength="123.2813" x="1730.2754" y="978.8076">- Fixed effects estimates</text><text fill="#000000" font-family="Arial" font-size="10" lengthAdjust="spacing" textLength="48.9502" x="1730.2754" y="990.4482">- P-values</text><text fill="#000000" font-family="Arial" font-size="10" lengthAdjust="spacing" textLength="99.2627" x="1730.2754" y="1002.0889">- Post-hoc contrasts</text><rect fill="#E8F4FD" height="33.9688" rx="5" ry="5" style="stroke:#2C5282;stroke-width:0.5;" width="122.0645" x="1888.5566" y="970.002"/><text fill="#1A365D" font-family="Arial" font-size="12" font-weight="bold" lengthAdjust="spacing" textLength="102.0645" x="1898.5566" y="991.1406">Export to Excel</text><rect fill="#555555" height="6" rx="2.5" ry="2.5" style="stroke:#555555;stroke-width:1;" width="681.2451" x="1341.376" y="1035.2676"/><rect fill="#E8F4FD" height="47.9375" rx="5" ry="5" style="stroke:#2C5282;stroke-width:0.5;" width="136.543" x="1613.7271" y="1061.2676"/><text fill="#1A365D" font-family="Arial" font-size="12" font-weight="bold" lengthAdjust="spacing" textLength="116.543" x="1623.7271" y="1082.4063">Create Combined</text><text fill="#1A365D" font-family="Arial" font-size="12" font-weight="bold" lengthAdjust="spacing" textLength="76.1484" x="1623.7271" y="1096.375">Grid Figure</text><rect fill="#E8F4FD" height="33.9688" rx="5" ry="5" style="stroke:#2C5282;stroke-width:0.5;" width="133.0625" x="1615.4673" y="1129.2051"/><text fill="#1A365D" font-family="Arial" font-size="12" font-weight="bold" lengthAdjust="spacing" textLength="113.0625" x="1625.4673" y="1150.3438">Save All Outputs</text><ellipse cx="1681.9985" cy="1194.1738" fill="none" rx="11" ry="11" style="stroke:#222222;stroke-width:1;"/><ellipse cx="1681.9985" cy="1194.1738" fill="#222222" rx="6" ry="6" style="stroke:#222222;stroke-width:1;"/><line style="stroke:#000000;stroke-width:1.5;" x1="1335.376" x2="1335.376" y1="64.9238" y2="1205.1738"/><line style="stroke:#000000;stroke-width:1.5;" x1="2026.6211" x2="2026.6211" y1="64.9238" y2="1205.1738"/><line style="stroke:#181818;stroke-width:2;" x1="118.958" x2="118.958" y1="103.8926" y2="123.8926"/><polygon fill="#181818" points="114.958,113.8926,118.958,123.8926,122.958,113.8926,118.958,117.8926" style="stroke:#181818;stroke-width:1;"/><line style="stroke:#181818;stroke-width:2;" x1="118.958" x2="118.958" y1="171.8301" y2="198.9473"/><polygon fill="#181818" points="114.958,188.9473,118.958,198.9473,122.958,188.9473,118.958,192.9473" style="stroke:#181818;stroke-width:1;"/><line style="stroke:#181818;stroke-width:2;" x1="118.958" x2="118.958" y1="232.916" y2="270.0332"/><polygon fill="#181818" points="114.958,260.0332,118.958,270.0332,122.958,260.0332,118.958,264.0332" style="stroke:#181818;stroke-width:1;"/><line style="stroke:#181818;stroke-width:2;" x1="118.958" x2="118.958" y1="331.9395" y2="351.9395"/><polygon fill="#181818" points="114.958,341.9395,118.958,351.9395,122.958,341.9395,118.958,345.9395" style="stroke:#181818;stroke-width:1;"/><line style="stroke:#181818;stroke-width:2;" x1="490.584" x2="490.584" y1="564.0176" y2="606.9551"/><polygon fill="#181818" points="486.584,596.9551,490.584,606.9551,494.584,596.9551,490.584,600.9551" style="stroke:#181818;stroke-width:1;"/><line style="stroke:#181818;stroke-width:2;" x1="490.584" x2="490.584" y1="654.8926" y2="674.8926"/><polygon fill="#181818" points="486.584,664.8926,490.584,674.8926,494.584,664.8926,490.584,668.8926" style="stroke:#181818;stroke-width:1;"/><line style="stroke:#181818;stroke-width:2;" x1="490.584" x2="490.584" y1="467.8145" y2="530.0488"/><polygon fill="#181818" points="486.584,520.0488,490.584,530.0488,494.584,520.0488,490.584,524.0488" style="stroke:#181818;stroke-width:1;"/><line style="stroke:#181818;stroke-width:2;" x1="839.1201" x2="839.1201" y1="760.8301" y2="780.8301"/><polygon fill="#181818" points="835.1201,770.8301,839.1201,780.8301,843.1201,770.8301,839.1201,774.8301" style="stroke:#181818;stroke-width:1;"/><line style="stroke:#181818;stroke-width:2;" x1="1264.1709" x2="1264.1709" y1="760.8301" y2="780.8301"/><polygon fill="#181818" points="1260.1709,770.8301,1264.1709,780.8301,1268.1709,770.8301,1264.1709,774.8301" style="stroke:#181818;stroke-width:1;"/><line style="stroke:#181818;stroke-width:2;" x1="839.1201" x2="839.1201" y1="828.7676" y2="848.7676"/><polygon fill="#181818" points="835.1201,838.7676,839.1201,848.7676,843.1201,838.7676,839.1201,842.7676" style="stroke:#181818;stroke-width:1;"/><line style="stroke:#181818;stroke-width:2;" x1="1264.1709" x2="1264.1709" y1="828.7676" y2="848.7676"/><polygon fill="#181818" points="1260.1709,838.7676,1264.1709,848.7676,1268.1709,838.7676,1264.1709,842.7676" style="stroke:#181818;stroke-width:1;"/><line style="stroke:#181818;stroke-width:2;" x1="1047.9849" x2="1047.9849" y1="854.7676" y2="874.7676"/><polygon fill="#181818" points="1043.9849,864.7676,1047.9849,874.7676,1051.9849,864.7676,1047.9849,868.7676" style="stroke:#181818;stroke-width:1;"/><line style="stroke:#181818;stroke-width:2;" x1="1430.0703" x2="1430.0703" y1="948.7051" y2="970.002"/><polygon fill="#181818" points="1426.0703,960.002,1430.0703,970.002,1434.0703,960.002,1430.0703,964.002" style="stroke:#181818;stroke-width:1;"/><line style="stroke:#181818;stroke-width:2;" x1="1949.5889" x2="1949.5889" y1="948.7051" y2="970.002"/><polygon fill="#181818" points="1945.5889,960.002,1949.5889,970.002,1953.5889,960.002,1949.5889,964.002" style="stroke:#181818;stroke-width:1;"/><line style="stroke:#181818;stroke-width:2;" x1="1430.0703" x2="1430.0703" y1="1003.9707" y2="1035.2676"/><polygon fill="#181818" points="1426.0703,1025.2676,1430.0703,1035.2676,1434.0703,1025.2676,1430.0703,1029.2676" style="stroke:#181818;stroke-width:1;"/><line style="stroke:#181818;stroke-width:2;" x1="1949.5889" x2="1949.5889" y1="1003.9707" y2="1035.2676"/><polygon fill="#181818" points="1945.5889,1025.2676,1949.5889,1035.2676,1953.5889,1025.2676,1949.5889,1029.2676" style="stroke:#181818;stroke-width:1;"/><line style="stroke:#181818;stroke-width:2;" x1="1681.9985" x2="1681.9985" y1="1041.2676" y2="1061.2676"/><polygon fill="#181818" points="1677.9985,1051.2676,1681.9985,1061.2676,1685.9985,1051.2676,1681.9985,1055.2676" style="stroke:#181818;stroke-width:1;"/><line style="stroke:#181818;stroke-width:2;" x1="1681.9985" x2="1681.9985" y1="1109.2051" y2="1129.2051"/><polygon fill="#181818" points="1677.9985,1119.2051,1681.9985,1129.2051,1685.9985,1119.2051,1681.9985,1123.2051" style="stroke:#181818;stroke-width:1;"/><line style="stroke:#181818;stroke-width:2;" x1="1681.9985" x2="1681.9985" y1="1163.1738" y2="1183.1738"/><polygon fill="#181818" points="1677.9985,1173.1738,1681.9985,1183.1738,1685.9985,1173.1738,1681.9985,1177.1738" style="stroke:#181818;stroke-width:1;"/><line style="stroke:#181818;stroke-width:2;" x1="118.958" x2="118.958" y1="399.877" y2="404.877"/><line style="stroke:#181818;stroke-width:2;" x1="118.958" x2="490.584" y1="404.877" y2="404.877"/><line style="stroke:#181818;stroke-width:2;" x1="490.584" x2="490.584" y1="404.877" y2="419.877"/><polygon fill="#181818" points="486.584,409.877,490.584,419.877,494.584,409.877,490.584,413.877" style="stroke:#181818;stroke-width:1;"/><line style="stroke:#181818;stroke-width:2;" x1="490.584" x2="490.584" y1="722.8301" y2="739.8301"/><line style="stroke:#181818;stroke-width:2;" x1="490.584" x2="1047.9849" y1="739.8301" y2="739.8301"/><line style="stroke:#181818;stroke-width:2;" x1="1047.9849" x2="1047.9849" y1="739.8301" y2="754.8301"/><polygon fill="#181818" points="1043.9849,744.8301,1047.9849,754.8301,1051.9849,744.8301,1047.9849,748.8301" style="stroke:#181818;stroke-width:1;"/><line style="stroke:#181818;stroke-width:2;" x1="1047.9849" x2="1047.9849" y1="922.7051" y2="927.7051"/><line style="stroke:#181818;stroke-width:2;" x1="1047.9849" x2="1681.9985" y1="927.7051" y2="927.7051"/><line style="stroke:#181818;stroke-width:2;" x1="1681.9985" x2="1681.9985" y1="927.7051" y2="942.7051"/><polygon fill="#181818" points="1677.9985,932.7051,1681.9985,942.7051,1685.9985,932.7051,1681.9985,936.7051" style="stroke:#181818;stroke-width:1;"/><text fill="#000000" font-family="Arial" font-size="12" lengthAdjust="spacing" textLength="116.9531" x="140.9736" y="76.0625">Data Preprocessing</text><text fill="#000000" font-family="Arial" font-size="12" lengthAdjust="spacing" textLength="112.5469" x="514.9736" y="76.0625">Statistical Analysis</text><text fill="#000000" font-family="Arial" font-size="12" lengthAdjust="spacing" textLength="106.084" x="993.9429" y="76.0625">Post-Hoc Analysis</text><text fill="#000000" font-family="Arial" font-size="12" lengthAdjust="spacing" textLength="151.9219" x="1605.0376" y="76.0625">Visualization &amp; Reporting</text><g class="footer" data-source-line="111"><text fill="#888888" font-family="Arial" font-size="10" lengthAdjust="spacing" textLength="356.5234" x="843.0024" y="1214.4561">Methods: pandas, numpy, statsmodels, scipy | Visualization: matplotlib</text></g><?plantuml-src bLRRRjiu47tNLmnQO16hzlgIsCawVV55IWF4gH4NxSk-CDBO8aAJMfAExQxxxpka95-Ifhjh88R26NBEd7E6iddYCcUQBU6H9KyBhLOo7IcXDAmpRZ4m-xZ9MAhMN2vWpeGvZgGuPojXOoNjFLiY33HdukVn6V-EqEuS1GTQg_MNZ2TF4es1uz130KPBrD1k1KSHbbZ-pEqM_Ww0FiCNqDz7L_55F2vYIgUeo_NEgDkvwlXrXwPSRG_EUzqYUypPKidqrO5nDBuS34vIZiyTjRgzJZluSOoHlYstNCctGCQNyI0UlGPvCUXsUrSlGNR6vvSNXzM2o8l3_tOh41wLI4zHI6NnJG1nF8o6hm6CUtz4dUX5gPOxbngYAc4ulRk5UxHhfPzW89dO6cvWodCKN68O_Ycd6JC8Tsm1jpB53SmiiznOdZ1nsF2Dji-5MWV1xdtKYy_ZU3Tcbi5KOwvLGdOWj-q2Oud9e1-6TugbyC3MuB9SbMOpsYGeOCu9rPhR31omPoPMQ9hDwy1jYhcmv1-tnQ0Dm-l0KwBv8hFKOXZEK63YTHffSZnvbtPHf04tH5Pku6oKSQtgC28kj18r7vivT4fIbD3MOQgCBRullXK99JsKC9xSrs56VwFeleZ56lzQeKosf8bCAMKWyepLOOYMrGAKgPVDmnynaQm48yH3mb_HssnEa4dVxLohfMCCJ86esNJXd5hs1anupgHjoW9Dyv7gLSmGTsALejzSjkFEzWTE69TxeQvBWMW8TZyJSkTEkoNg7CpFpwZTCPKzDY-wfSCEa_6EHAMMc8O9ts3QYEPpqiB0HAKeml1TwLmwVenpIgm2rtxvH4Zt2KCVXrcE2PyJHbUaKDDFxjS-EDw8jd8bTbNxXT3meM81FfJXybE4Ds-5As7WB57FZFnZiLPcF533Qjc7wK4AEEEIg4emjqNMGUworPZRgaydvTqmlfc1oYrVyk--8ozWcHmvjplUVIjG4bXwn8c89QM_WQ_BlDNzTFnmij8Tq8rwE-VSnYUL76aw9_MgAcJCDQ9iU2RSuMHCDmtCk5flgE4cFwVka9gs3OkKMqOIjIGFk5V9mezOkSmi84kooicdx3Wum1RKKWNg6mqy_m-O1Cx_3wIoUXLO-oe5C8_s59Pxy4ov6HZakTZ2Z2-aTvzCiC3r9TDeChgRmn3ESlW8hTzRtPeVAyS-tNjVkLanKUfBMZrWhiWoxlexrk46PJ5bRcfWAjGlw6_0_evmju77tZocrgL4zFRLzEhNT0dDejf-_RW7M3BzXDhiNNyMGlwHEgZJmFcdjdig7bljsh_f5crSRs0L-DlxBQqQfQKh0vDOV4czctrysYYk-iE2St56Baug8_n2h956n-H8BH-9pBHGwaRpbEekLXeTBfStOy_qaqO8-Boo-QeWdDv9AW-eD-NUBHEqcKfDdsvScJ9J1xbQvjiwq8lBcgMRP5epDFvRsC69qdtYrkOae-2F_m00?></g></svg>